<svg width="177" height="220" viewBox="0 0 177 220" fill="none" xmlns="http://www.w3.org/2000/svg">
<ellipse cx="89" cy="207" rx="88" ry="13" fill="#D7F0FA" fill-opacity="0.3"/>
<path d="M127.535 17.0115L0 56.7856L49.1517 214.39L176.687 174.616L127.535 17.0115Z" fill="#D7F0FA"/>
<path d="M113.247 60.6355L38.5928 83.9179L62.1985 159.609L136.853 136.327L113.247 60.6355Z" fill="#A2DCF2"/>
<path d="M111.247 59.6355L36.5928 82.9179L60.1985 158.609L134.853 135.327L111.247 59.6355Z" fill="white"/>
<path d="M78.1439 32.4238L54.2959 39.8613L59.974 58.0679L83.822 50.6305L78.1439 32.4238Z" fill="#A2DCF2"/>
<path d="M65.3439 -8.54519e-07L41.4958 7.43743L56.6941 56.1703L80.5421 48.7329L65.3439 -8.54519e-07Z" fill="#1D8ECE"/>
<path d="M141.106 153.328L136.622 154.726C134.432 155.409 133.211 157.738 133.894 159.928C134.577 162.118 136.906 163.34 139.096 162.657L143.58 161.259C145.77 160.575 146.992 158.247 146.309 156.056C145.626 153.866 143.297 152.645 141.106 153.328Z" fill="white"/>
<path d="M119.472 160.075L65.981 176.757C63.7909 177.44 62.5693 179.769 63.2523 181.959C63.9353 184.15 66.2643 185.371 68.4544 184.688L121.945 168.006C124.135 167.323 125.357 164.994 124.674 162.804C123.991 160.614 121.662 159.392 119.472 160.075Z" fill="white"/>
<path d="M55.6129 11.3531C53.4227 12.0361 52.2011 14.3651 52.8841 16.5552L53.1544 17.4218C53.8375 19.612 56.1664 20.8336 58.3565 20.1506C60.5466 19.4675 61.7683 17.1386 61.0852 14.9485L60.815 14.0818C60.1319 11.8917 57.803 10.6701 55.6129 11.3531Z" fill="#A2DCF2"/>
<path d="M109.551 113.099L95.6526 114.065L79.0828 119.647L67.294 127.321C63.6229 130.022 62.117 134.787 63.5713 139.108L65.8717 145.943L121.943 127.071L119.643 120.236C118.188 115.915 114.108 113.031 109.551 113.099Z" fill="#A2DCF2"/>
<path d="M95.5814 114.089L93.5425 108.027L76.9711 113.605L79.0128 119.671C85.0926 123.149 92.8449 120.537 95.5814 114.089Z" fill="#C2DBE3"/>
<path d="M91.9199 90.5903L93.2566 94.5621C93.2806 94.6333 94.4544 98.4687 94.421 101.465C94.3837 104.966 93.8076 108.448 92.3822 111.67L91.6503 113.321C90.9882 114.831 89.7136 115.99 88.1471 116.517L86.3949 117.107C84.8412 117.63 83.1219 117.467 81.6848 116.675L80.1166 115.798C77.9292 114.597 75.9541 113.052 74.2725 111.263C72.8209 109.736 70.3781 106.612 68.9722 102.435L67.7498 98.8031C66.9686 96.482 67.0833 94.23 67.1358 93.6908C67.5347 88.7708 70.7958 84.318 75.785 82.6388C80.7496 80.9679 86.034 82.5303 89.3226 86.1962C89.6955 86.6051 91.1005 88.1558 91.9199 90.5903Z" fill="#FFD15C"/>
<path d="M72.8942 101.604C73.7822 103.639 73.3713 105.784 71.9766 106.393C70.5795 107.002 68.7279 105.848 67.8375 103.813C66.9471 101.778 67.3592 99.633 68.7562 99.0235C70.1523 98.4145 72.0051 99.5687 72.8942 101.604Z" fill="#C2DBE3"/>
<path d="M94.9048 94.703C95.426 96.862 94.6497 98.9023 93.168 99.2606C91.6879 99.6196 90.0626 98.1599 89.5403 96.0013C89.018 93.8427 89.7959 91.8032 91.2783 91.4434C92.7573 91.0848 94.3813 92.5448 94.9048 94.703Z" fill="#C2DBE3"/>
<path d="M91.9199 90.5903L93.2566 94.5621C93.2806 94.6333 94.4544 98.4687 94.421 101.465C94.3837 104.966 93.8076 108.448 92.3822 111.67L91.6503 113.321C90.9882 114.831 89.7136 115.99 88.1471 116.517L86.3949 117.107C84.8412 117.63 83.1219 117.467 81.6848 116.675L80.1166 115.798C77.9292 114.597 75.9541 113.052 74.2725 111.263C72.8209 109.736 70.3781 106.612 68.9722 102.435L67.7498 98.8031C66.9686 96.482 67.0833 94.23 67.1358 93.6908C67.5347 88.7708 70.7958 84.318 75.785 82.6388C80.7496 80.9679 86.034 82.5303 89.3226 86.1962C89.6955 86.6051 91.1005 88.1558 91.9199 90.5903Z" fill="#F4FAFC"/>
<g opacity="0.1">
<g opacity="0.1">
<path opacity="0.1" d="M92.3868 111.68L91.6549 113.331C90.9924 114.84 89.7174 115.998 88.1509 116.525L86.3987 117.115C86.3684 117.125 86.3325 117.127 86.3009 117.137L91.7575 118.949C93.3875 117.752 94.7314 116.111 95.5861 114.099L95.5857 114.098L93.6855 108.452C93.6167 108.526 93.5285 108.612 93.4512 108.691C93.1548 109.704 92.8158 110.706 92.3868 111.68Z" fill="#C2DBE3"/>
</g>
</g>
<path d="M76.214 130.795L73.6522 123.183L70.252 125.396L72.4911 132.048L76.214 130.795Z" fill="#2F4859"/>
<path d="M108.27 120.007L106.027 113.345L101.977 113.626L104.547 121.26L108.27 120.007Z" fill="#2F4859"/>
<path d="M108.271 120.007L72.4916 132.05L76.0187 142.529L111.798 130.487L108.271 120.007Z" fill="#2F4859"/>
<path d="M75.6996 133.049L74.265 133.532L75.3997 136.903L76.8342 136.421L75.6996 133.049Z" fill="#A2DCF2"/>
<path d="M107.757 122.26L106.324 122.742L107.459 126.114L108.892 125.631L107.757 122.26Z" fill="#A2DCF2"/>
<path d="M75.2786 80.3656C75.1945 80.3822 75.1174 80.4081 75.0356 80.4357C68.3503 82.6857 64.9697 90.5392 67.8653 99.1427C67.9345 99.3483 68.0068 99.5398 68.0783 99.7368C68.1846 99.5385 68.3005 99.3343 68.4246 99.1273L68.39 99.1286C68.39 99.1286 73.7486 93.2689 79.1579 91.9841C84.2433 89.7366 92.045 91.5105 92.2526 91.6057C92.1905 91.4056 92.1294 91.2049 92.0602 90.9994C89.1968 82.4996 81.8983 78.3145 75.2786 80.3656Z" fill="#40596B"/>
<path d="M80.4077 84.3145C80.7388 85.2981 79.3711 86.644 77.3536 87.323C75.3362 88.002 73.4326 87.7557 73.102 86.7734C72.7717 85.7922 74.139 84.445 76.1565 83.766C78.1739 83.087 80.0775 83.3333 80.4077 84.3145Z" fill="#F4FAFC"/>
<g opacity="0.1">
<g opacity="0.1">
<path opacity="0.1" d="M92.2443 91.5891L90.1409 92.9979C89.1712 93.6481 87.9216 93.8151 86.8608 93.3255C82.8588 91.485 79.2606 92.9886 79.2606 92.9886C79.2606 92.9886 79.2435 92.9918 79.2225 92.9989C78.8548 93.1045 70.1439 96.585 68.0784 99.7368L94.3575 102.767C94.3792 102.333 94.4196 101.901 94.4243 101.466C94.4577 98.4701 93.2831 94.6324 93.2595 94.5623L92.2443 91.5891Z" fill="#40596B"/>
</g>
</g>
<path d="M78.372 90.3486C71.6165 92.7575 68.0712 99.7236 68.0712 99.7236L70.6616 99.5722C71.8131 99.5045 72.8703 98.8626 73.4134 97.8449C75.4893 93.9665 79.2594 92.9889 79.2594 92.9889C79.2594 92.9889 82.8519 91.4872 86.8495 93.3228C87.9001 93.8054 89.1299 93.6763 90.0868 93.0343L92.2427 91.5883C92.245 91.5875 85.4552 87.9322 78.372 90.3486Z" fill="#C2DBE3"/>
</svg>
