<svg width="58" height="54" viewBox="0 0 58 54" fill="none" xmlns="http://www.w3.org/2000/svg">
<path d="M20.4467 42.2973L12.0192 46.7063C11.5247 46.9649 11.0802 47.2828 10.6667 47.6294C15.5801 51.6028 21.9228 54 28.8528 54C35.7316 54 42.0338 51.6386 46.9334 47.7193C46.4814 47.3534 45.9912 47.0242 45.4476 46.7646L36.4233 42.4374C35.2573 41.8782 34.5208 40.7353 34.5208 39.4851V36.0892C34.7745 35.8122 35.0644 35.4565 35.3745 35.0363C36.6045 33.3701 37.535 31.5372 38.1798 29.6143C39.3373 29.2719 40.1899 28.2466 40.1899 27.0281V23.4032C40.1899 22.6058 39.8201 21.8933 39.2456 21.3945V16.1544C39.2456 16.1544 40.3679 8 28.8538 8C17.3398 8 18.4621 16.1544 18.4621 16.1544V21.3945C17.8866 21.8933 17.5178 22.6058 17.5178 23.4032V27.0281C17.5178 27.9828 18.0411 28.8231 18.8245 29.3087C19.7688 33.2515 22.2415 36.0892 22.2415 36.0892V39.4013C22.2404 40.6076 21.5519 41.7187 20.4467 42.2973Z" fill="#E5F6FD"/>
<path d="M29.2922 0.00402062C13.3892 -0.250696 0.275989 11.6293 0.0042915 26.5384C-0.150033 34.9919 3.86892 42.5896 10.268 47.6422C10.6864 47.2998 11.1352 46.986 11.6341 46.7313L20.2273 42.3369C21.3543 41.7603 22.0564 40.6528 22.0564 39.4485V36.1473C22.0564 36.1473 19.5339 33.3189 18.5721 29.3892C17.7744 28.9052 17.2397 28.0687 17.2397 27.1161V23.5032C17.2397 22.7085 17.6168 21.9983 18.2026 21.5011V16.2784C18.2026 16.2784 17.0582 8.15088 28.7988 8.15088C40.5395 8.15088 39.3951 16.2784 39.3951 16.2784V21.5011C39.9819 21.9983 40.358 22.7085 40.358 23.5032V27.1161C40.358 28.3306 39.4885 29.3525 38.3083 29.6938C37.6508 31.6103 36.702 33.4371 35.4478 35.0979C35.1316 35.5166 34.836 35.8712 34.5773 36.1473V39.532C34.5773 40.7781 35.3283 41.9182 36.5172 42.4745L45.7191 46.7874C46.2712 47.0461 46.77 47.3732 47.2297 47.7369C53.4353 42.8851 57.4445 35.6308 57.5934 27.4615C57.8673 12.5524 45.1964 0.258737 29.2922 0.00402062Z" fill="#1F3764"/>
</svg>
