<svg id="Layer_2_copy" data-name="Layer 2 copy" xmlns="http://www.w3.org/2000/svg" viewBox="0 0 841.89 595.28"><title>Milkyway AI_12092019_01</title><path d="M586.33,254.1c23.68,38.52,6.43,85.43-.48,124.69-8,45.42-12.1,67.53-50.85,98.16-52.23,41.29-118.7-17.13-184.58-6.31-59.21,9.72-162-32.18-141.23-107.18C245,234,181.57,204.78,302.54,121.5c33.39-23,78.9-25.07,125.42-8,28.86,10.61,55.18,45.69,80.16,64.74C534.27,198.2,571.72,230.34,586.33,254.1Z" style="fill:#25ade3"/><ellipse cx="382.98" cy="471.5" rx="184.78" ry="25.28" style="fill:#231f20"/><polygon points="474.56 179.91 610.11 165.76 613.05 243.56 476.92 254.16 474.56 179.91" style="fill:#25ade3;stroke:#231f20;stroke-linecap:round;stroke-linejoin:round;stroke-width:2px"/><path d="M477,227s71.89-9.93,105.32-57.2L475,180.85Z" style="fill:#fff"/><polygon points="475.11 180.12 538.33 215.56 610.08 165.91 475.11 180.12" style="fill:none;stroke:#231f20;stroke-linecap:round;stroke-linejoin:round;stroke-width:2px"/><line x1="476.92" y1="254.16" x2="513.41" y2="202.11" style="fill:#25ade3;stroke:#231f20;stroke-linecap:round;stroke-linejoin:round;stroke-width:2px"/><line x1="568.88" y1="195.03" x2="613.05" y2="243.56" style="fill:#25ade3;stroke:#231f20;stroke-linecap:round;stroke-linejoin:round;stroke-width:2px"/><path d="M475.24,207.47s-4.22-30.54,42.11-3.65L474.62,180Z" style="fill:#231f20"/><path d="M590.8,180.14s19.42-4.24,20.48,20.09L610,166.5Z" style="fill:#231f20"/><circle cx="442.14" cy="198.08" r="8.14" style="fill:#1a1a1a"/><circle cx="460.62" cy="180.48" r="2.75" style="fill:#fff"/><circle cx="573.04" cy="285.04" r="7.59" style="fill:#1a1a1a"/><circle cx="623.48" cy="190.73" r="5" style="fill:#25ade3"/><circle cx="582.51" cy="288.25" r="3.79" style="fill:#fff"/><path d="M447.17,234.83s14.8,45.09,61.66,58.57" style="fill:none;stroke:#1a1a1a;stroke-miterlimit:10;stroke-width:2px"/><path d="M472.05,282.44s10.15,10,21.31,10.43" style="fill:none;stroke:#1a1a1a;stroke-miterlimit:10;stroke-width:2px"/><path d="M638.85,222.67s-6.15,27.07-28,43.58" style="fill:none;stroke:#1a1a1a;stroke-miterlimit:10;stroke-width:2px"/><path d="M379.66,493.5l-.11-178.6s-24.67,6.89-40.7-21.52c0,0-129.77,14.87-107.08,191.73,0,0,55.67,11.42,147.58,10.56" style="fill:#fff;stroke:#231f20;stroke-linecap:round;stroke-linejoin:round;stroke-width:2px"/><path d="M545.85,483.29c11-1.65-60.09-95.87-86.75-103.49-28.45-8.13-73.23,46.39-73.23,46.39-5.55,8.75-6.75,9.59-6.75,9.59l-81,15.09-66.25,34S367.24,510.05,545.85,483.29Z" style="fill:#22ade3;stroke:#1a1a1a;stroke-linecap:round;stroke-linejoin:round;stroke-width:2px"/><path d="M408.66,404.35s.86,9.71,15.33,4.8,23.68-15.8,32.14-11.16,43.81,51.3,61.92,42.49c0,0-38.27-56.11-61.53-60.25a23.22,23.22,0,0,0-8.51-.1C425.79,384.49,408.66,404.35,408.66,404.35Z" style="fill:#fff"/><polygon points="395.06 393.79 379.71 316.18 368.3 417.81 395.06 393.79" style="fill:#231f20"/><path d="M339,294.66s-80.79,28.57-81.92,124.45,111,41.49,128.7,6.91l-5.25-25.84s-16.79,2-29.47,7.37c0,0,8.16-51.2,8.38-63.63" style="fill:#fff;stroke:#1a1a1a;stroke-linecap:round;stroke-linejoin:round;stroke-width:2px"/><path d="M422.13,390.86l-1.63-93c5.11-8.34,13.93-27.17-4.2-25.42s-40.73,128.15-40.73,128.15l4.28-.31,5.82,26.22,1.77-2.67,9.82-10.4,10.91-10.65Z" style="fill:#22ade3;stroke:#231f20;stroke-linecap:round;stroke-linejoin:round;stroke-width:2px"/><path d="M407.39,283.26s-2.73,7.87,1,5.75,5.6-11,5.6-11-3.11,10-1.36,11.25,4.68-7.59,4.93-11c0,0-2.54,10.13.63,9.08s3.09-9.43,3.09-9.43" style="fill:none;stroke:#1a1a1a;stroke-linecap:round;stroke-linejoin:round;stroke-width:2px"/><path d="M260.77,391.73s26.36,31.66,15.91,74.23C276.68,466,249.42,455.27,260.77,391.73Z" style="fill:#25ade3"/><line x1="379.4" y1="316.26" x2="390.22" y2="284.16" style="fill:none;stroke:#231f20;stroke-linecap:round;stroke-linejoin:round;stroke-width:2px"/><path d="M382,280.32s25,16,34.19-4.07A70.64,70.64,0,0,0,418,264.36s9.78-7.53,8.07-9.4-10.2-4.36-10.2-4.36-3.5-15-7.31-19.57" style="fill:#22ade3;stroke:#1a1a1a;stroke-linecap:round;stroke-linejoin:round;stroke-width:2px"/><line x1="413.81" y1="377.5" x2="413.84" y2="385.67" style="fill:none;stroke:#fff;stroke-linecap:round;stroke-linejoin:round;stroke-width:2px"/><path d="M379.69,400.11s29.52-17.15,35.25-3.05" style="fill:none;stroke:#231f20;stroke-linecap:round;stroke-linejoin:round;stroke-width:2px"/><ellipse cx="405.87" cy="250.86" rx="7.06" ry="4.35" transform="translate(-41.87 85.97) rotate(-11.5)" style="fill:#fff;stroke:#1a1a1a;stroke-miterlimit:10;stroke-width:2px"/><ellipse cx="409.71" cy="250.11" rx="3.15" ry="3.42" transform="matrix(0.98, -0.2, 0.2, 0.98, -41.64, 86.72)" style="fill:#231f20;stroke:#1a1a1a;stroke-miterlimit:10"/><path d="M408.74,231.26s-2.64,13.49-14.19,16.57c0,0-6.91,2-9.21-2.2s-10.42,3-5.49,10.11,7.45,20.62-13.66,29.56-37.27,21.92-51.27,41.61-20.7,33.78-53.39,34.34-60.87-69.37-16-98.94,51.77-10.57,69.6-29.45c15.74-16.67,52.46-44.59,79.68-28.45C416.58,217.32,408.74,231.26,408.74,231.26Z" style="fill:#231f20"/><path d="M347.87,423.07l3.2-15.52s2.3-2.09,16.77-4.92C367.84,402.63,352.12,408.79,347.87,423.07Z" style="fill:#231f20;stroke:#231f20;stroke-linecap:round;stroke-linejoin:round;stroke-width:2px"/><line x1="414.26" y1="314.75" x2="414.26" y2="368.2" style="fill:none;stroke:#fff;stroke-linecap:round;stroke-linejoin:round;stroke-width:2px"/><path d="M264.58,263.07S227,281,232.37,303.19s23.93-18.84,37.39-29.78C276.65,267.82,271.93,259.3,264.58,263.07Z" style="fill:#fff"/><ellipse cx="282.78" cy="261.86" rx="3.01" ry="1.63" transform="translate(-73.4 114.64) rotate(-20.34)" style="fill:#fff"/><path d="M249.32,336.64s24.53,25,59.93-18.88" style="fill:none;stroke:#fff;stroke-linecap:round;stroke-linejoin:round;stroke-width:2px"/><path d="M320.47,305.62A30.47,30.47,0,0,1,332.92,296" style="fill:none;stroke:#fff;stroke-linecap:round;stroke-linejoin:round;stroke-width:2px"/><path d="M228.92,124.88c-4.51,1.87-11.08,12.73-10.77,16.93h0a45.13,45.13,0,0,0,.61,5.6h0c.68,2.62,1.5,13.56,1.5,13.56s.1,10,4.65,9.3,24.79-22.06,24.78-28.67S233.67,122.92,228.92,124.88Z" style="fill:#25ade3"/><path d="M511.83,151.28c-8.93,8.12-19.09-8.76-35.57-24.39s-37.5-21.88-24.1-32.21c6-4.65,21.43-6.65,43.81,13.07C519.54,128.49,517.46,146.16,511.83,151.28Z" style="fill:#25ade3"/></svg>