<svg width="177" height="220" viewBox="0 0 177 220" fill="none" xmlns="http://www.w3.org/2000/svg">
<ellipse cx="89" cy="207" rx="88" ry="13" fill="#D7F0FA" fill-opacity="0.3"/>
<path d="M127.535 17.0115L0 56.7856L49.1517 214.39L176.687 174.616L127.535 17.0115Z" fill="#D7F0FA"/>
<path d="M113.247 60.6355L38.5928 83.9179L62.1985 159.609L136.853 136.327L113.247 60.6355Z" fill="#A2DCF2"/>
<path d="M111.247 59.6355L36.5928 82.9179L60.1985 158.609L134.853 135.327L111.247 59.6355Z" fill="white"/>
<path d="M78.1439 32.4238L54.2959 39.8613L59.974 58.0679L83.822 50.6305L78.1439 32.4238Z" fill="#A2DCF2"/>
<path d="M65.3439 6.77488e-06L41.4958 7.43744L56.6941 56.1703L80.5421 48.7329L65.3439 6.77488e-06Z" fill="#1D8ECE"/>
<path d="M119.472 160.075L65.981 176.757C63.7909 177.44 62.5693 179.769 63.2523 181.959C63.9353 184.149 66.2643 185.371 68.4544 184.688L121.945 168.006C124.135 167.323 125.357 164.994 124.674 162.804C123.991 160.614 121.662 159.392 119.472 160.075Z" fill="white"/>
<path d="M55.6129 11.3531C53.4227 12.0361 52.2011 14.3651 52.8841 16.5552L53.1544 17.4218C53.8375 19.612 56.1664 20.8336 58.3565 20.1506C60.5466 19.4675 61.7683 17.1386 61.0852 14.9485L60.815 14.0818C60.1319 11.8917 57.803 10.6701 55.6129 11.3531Z" fill="#A2DCF2"/>
<path d="M105.546 111.355L68.9994 123.838L75.9749 144.261L112.521 131.778L105.546 111.355Z" fill="#3A556A"/>
<path d="M93.7974 76.9589L57.2512 89.4415L68.2652 121.688L104.811 109.206L93.7974 76.9589Z" fill="#F4FAFC"/>
<path d="M108.063 111.696L67.2168 125.647L54 86.9511L94.8457 73L96.3143 77.2996L59.7681 89.7821L70.0478 119.879L106.594 107.396L108.063 111.696Z" fill="#A2DCF2"/>
<path d="M69.442 86.4779L67.2922 87.2122L76.4706 114.084L78.6204 113.35L69.442 86.4779Z" fill="#C2DBE3"/>
<path d="M78.0411 83.5408L75.8914 84.2751L85.0697 111.147L87.2195 110.413L78.0411 83.5408Z" fill="#C2DBE3"/>
<path d="M86.6402 80.6038L84.4904 81.338L93.6688 108.21L95.8185 107.476L86.6402 80.6038Z" fill="#C2DBE3"/>
<path d="M99.0432 106.375L73.2459 115.186L76.9173 125.935L102.715 117.123L99.0432 106.375Z" fill="#3258A1"/>
<path d="M97.1016 86.6329L62.7051 98.3812L63.4394 100.531L97.8358 88.7827L97.1016 86.6329Z" fill="#C2DBE3"/>
<path d="M100.406 96.3069L66.0093 108.055L66.7436 110.205L101.14 98.4567L100.406 96.3069Z" fill="#C2DBE3"/>
<path d="M80.0889 117.65L77.9391 118.384L78.6734 120.534L80.8231 119.799L80.0889 117.65Z" fill="#DFD9D3"/>
<path d="M97.2871 111.776L82.2386 116.915L82.9729 119.065L98.0213 113.925L97.2871 111.776Z" fill="#DFD9D3"/>
<path d="M90.5766 127.271L83.0524 129.841L86.7238 140.589L94.248 138.02L90.5766 127.271Z" fill="#C2DBE3"/>
<path d="M98.1008 124.701L90.5766 127.271L94.2479 138.02L101.772 135.45L98.1008 124.701Z" fill="#F4FAFC"/>
<path d="M95.2701 130.469L88.8208 132.672L89.5551 134.821L96.0044 132.619L95.2701 130.469Z" fill="#A2DCF2"/>
<path d="M99.8835 122.892L80.5355 129.5L81.2698 131.65L100.618 125.041L99.8835 122.892Z" fill="#A2DCF2"/>
</svg>
