<svg width="249" height="249" viewBox="0 0 249 249" fill="none" xmlns="http://www.w3.org/2000/svg">
<g opacity="0.2">
<path d="M27.9372 29.6089V35.4494H14.3016V29.6089C14.3016 28.7755 14.9757 28.0937 15.8167 28.0937H26.4222C27.2554 28.0937 27.9372 28.7754 27.9372 29.6089Z" fill="#A2DCF2"/>
<path d="M26.8538 35.4494H15.3774V40.245H26.8538V35.4494Z" fill="#1D8ECE"/>
<path d="M34.4522 64.4784C34.3839 62.2663 32.793 58.8497 31.6113 56.5922C30.6492 54.7666 29.7781 52.8955 29.0129 50.9789L28.9447 50.797C28.9447 50.797 28.3084 49.2439 27.7402 47.0773H14.4909C13.9229 49.2439 13.2939 50.797 13.2939 50.797L13.2183 50.9789C12.4607 52.8955 11.5818 54.7665 10.6274 56.5922C9.44565 58.8496 7.8549 62.2663 7.78664 64.4784C7.77899 64.6298 7.77899 64.7737 7.77148 64.9252V91.7723C7.77148 93.2345 8.96072 94.4163 10.4154 94.4163H31.8158C33.2779 94.4163 34.4595 93.2345 34.4595 91.7723V64.9252C34.4595 64.7737 34.4522 64.6298 34.4522 64.4784Z" fill="#1D8ECE"/>
<path d="M26.8541 41.0854V40.2446H15.3773V41.0854C15.3773 43.1386 14.9531 45.3125 14.491 47.0775H27.7402C27.2783 45.3125 26.8541 43.1386 26.8541 41.0854Z" fill="#E5F6FD"/>
<path d="M27.3451 88.9025H14.8861C13.9093 88.9025 13.1175 88.1107 13.1175 87.1339V74.9407C13.1175 73.9639 13.9093 73.1721 14.8861 73.1721H27.3451C28.3219 73.1721 29.1138 73.9639 29.1138 74.9407V87.1339C29.1138 88.1107 28.3219 88.9025 27.3451 88.9025Z" fill="white"/>
<path d="M56.9334 29.6089V35.4494H43.2978V29.6089C43.2978 28.7755 43.9719 28.0937 44.8129 28.0937H55.4184C56.2516 28.0937 56.9334 28.7754 56.9334 29.6089Z" fill="#A2DCF2"/>
<path d="M55.8501 35.4494H44.3737V40.245H55.8501V35.4494Z" fill="#1D8ECE"/>
<path d="M63.4484 64.4784C63.3801 62.2663 61.7892 58.8497 60.6075 56.5922C59.6454 54.7666 58.7743 52.8955 58.0091 50.9789L57.941 50.797C57.941 50.797 57.3046 49.2439 56.7364 47.0773H43.4872C42.9191 49.2439 42.2901 50.797 42.2901 50.797L42.2145 50.9789C41.4569 52.8955 40.578 54.7665 39.6236 56.5922C38.4419 58.8496 36.8511 62.2663 36.7829 64.4784C36.7752 64.6298 36.7752 64.7737 36.7677 64.9252V91.7723C36.7677 93.2345 37.9569 94.4163 39.4116 94.4163H60.812C62.2742 94.4163 63.4557 93.2345 63.4557 91.7723V64.9252C63.4557 64.7737 63.4484 64.6298 63.4484 64.4784Z" fill="#1D8ECE"/>
<path d="M55.8503 41.0854V40.2446H44.3735V41.0854C44.3735 43.1386 43.9493 45.3125 43.4872 47.0775H56.7365C56.2745 45.3125 55.8503 43.1386 55.8503 41.0854Z" fill="#E5F6FD"/>
<path d="M56.3413 88.9025H43.8823C42.9055 88.9025 42.1137 88.1107 42.1137 87.1339V74.9407C42.1137 73.9639 42.9055 73.1721 43.8823 73.1721H56.3413C57.3181 73.1721 58.11 73.9639 58.11 74.9407V87.1339C58.11 88.1107 57.3181 88.9025 56.3413 88.9025Z" fill="white"/>
<path d="M85.9495 29.6089V35.4494H72.3139V29.6089C72.3139 28.7755 72.988 28.0937 73.829 28.0937H84.4346C85.2678 28.0937 85.9495 28.7754 85.9495 29.6089Z" fill="#A2DCF2"/>
<path d="M84.8662 35.4494H73.3898V40.245H84.8662V35.4494Z" fill="#1D8ECE"/>
<path d="M92.4645 64.4784C92.3962 62.2663 90.8053 58.8497 89.6236 56.5922C88.6616 54.7666 87.7904 52.8955 87.0252 50.9789L86.9571 50.797C86.9571 50.797 86.3208 49.2439 85.7525 47.0773H72.5033C71.9352 49.2439 71.3062 50.797 71.3062 50.797L71.2306 50.9789C70.4731 52.8955 69.5941 54.7665 68.6397 56.5922C67.458 58.8496 65.8672 62.2663 65.799 64.4784C65.7913 64.6298 65.7913 64.7737 65.7838 64.9252V91.7723C65.7838 93.2345 66.973 94.4163 68.4277 94.4163H89.8281C91.2903 94.4163 92.4719 93.2345 92.4719 91.7723V64.9252C92.4719 64.7737 92.4645 64.6298 92.4645 64.4784Z" fill="#1D8ECE"/>
<path d="M84.8664 41.0854V40.2446H73.3896V41.0854C73.3896 43.1386 72.9654 45.3125 72.5033 47.0775H85.7526C85.2906 45.3125 84.8664 43.1386 84.8664 41.0854Z" fill="#E5F6FD"/>
<path d="M85.3575 88.9025H72.8984C71.9217 88.9025 71.1298 88.1107 71.1298 87.1339V74.9407C71.1298 73.9639 71.9217 73.1721 72.8984 73.1721H85.3575C86.3343 73.1721 87.1261 73.9639 87.1261 74.9407V87.1339C87.1261 88.1107 86.3343 88.9025 85.3575 88.9025Z" fill="white"/>
<path d="M114.966 29.6089V35.4494H101.33V29.6089C101.33 28.7755 102.004 28.0937 102.845 28.0937H113.451C114.284 28.0937 114.966 28.7754 114.966 29.6089Z" fill="#A2DCF2"/>
<path d="M113.882 35.4494H102.406V40.245H113.882V35.4494Z" fill="#1D8ECE"/>
<path d="M121.481 64.4784C121.412 62.2663 119.822 58.8497 118.64 56.5922C117.678 54.7666 116.807 52.8955 116.041 50.9789L115.973 50.797C115.973 50.797 115.337 49.2439 114.769 47.0773H101.519C100.951 49.2439 100.322 50.797 100.322 50.797L100.247 50.9789C99.4892 52.8955 98.6103 54.7665 97.6559 56.5922C96.4742 58.8496 94.8834 62.2663 94.8151 64.4784C94.8075 64.6298 94.8075 64.7737 94.8 64.9252V91.7723C94.8 93.2345 95.9892 94.4163 97.4439 94.4163H118.844C120.306 94.4163 121.488 93.2345 121.488 91.7723V64.9252C121.488 64.7737 121.481 64.6298 121.481 64.4784Z" fill="#1D8ECE"/>
<path d="M113.883 41.0854V40.2446H102.406V41.0854C102.406 43.1386 101.982 45.3125 101.519 47.0775H114.769C114.307 45.3125 113.883 43.1386 113.883 41.0854Z" fill="#E5F6FD"/>
<path d="M114.374 88.9025H101.915C100.938 88.9025 100.146 88.1107 100.146 87.1339V74.9407C100.146 73.9639 100.938 73.1721 101.915 73.1721H114.374C115.35 73.1721 116.142 73.9639 116.142 74.9407V87.1339C116.142 88.1107 115.35 88.9025 114.374 88.9025Z" fill="white"/>
<path d="M143.982 29.6089V35.4494H130.346V29.6089C130.346 28.7755 131.02 28.0937 131.861 28.0937H142.467C143.3 28.0937 143.982 28.7754 143.982 29.6089Z" fill="#A2DCF2"/>
<path d="M142.898 35.4494H131.422V40.245H142.898V35.4494Z" fill="#1D8ECE"/>
<path d="M150.497 64.4784C150.429 62.2663 148.838 58.8497 147.656 56.5922C146.694 54.7666 145.823 52.8955 145.057 50.9789L144.989 50.797C144.989 50.797 144.353 49.2439 143.785 47.0773H130.536C129.967 49.2439 129.339 50.797 129.339 50.797L129.263 50.9789C128.505 52.8955 127.626 54.7665 126.672 56.5922C125.49 58.8496 123.9 62.2663 123.831 64.4784C123.824 64.6298 123.824 64.7737 123.816 64.9252V91.7723C123.816 93.2345 125.005 94.4163 126.46 94.4163H147.86C149.323 94.4163 150.504 93.2345 150.504 91.7723V64.9252C150.504 64.7737 150.497 64.6298 150.497 64.4784Z" fill="#1D8ECE"/>
<path d="M142.899 41.0854V40.2446H131.422V41.0854C131.422 43.1386 130.998 45.3125 130.536 47.0775H143.785C143.323 45.3125 142.899 43.1386 142.899 41.0854Z" fill="#E5F6FD"/>
<path d="M143.39 88.9025H130.931C129.954 88.9025 129.162 88.1107 129.162 87.1339V74.9407C129.162 73.9639 129.954 73.1721 130.931 73.1721H143.39C144.367 73.1721 145.158 73.9639 145.158 74.9407V87.1339C145.158 88.1107 144.367 88.9025 143.39 88.9025Z" fill="white"/>
<rect x="8.58063" y="103.536" width="56.3742" height="65.4935" fill="#A2DCF2"/>
<rect x="11.0317" y="117.629" width="51.4721" height="16.5806" fill="#27AEE3"/>
<ellipse cx="48.6144" cy="118.458" rx="7.35316" ry="7.46129" fill="white"/>
<ellipse cx="39.2188" cy="122.189" rx="4.4936" ry="4.55968" fill="white"/>
<ellipse cx="54.7421" cy="134.624" rx="4.4936" ry="4.55968" fill="white"/>
<rect x="67.4419" y="103.536" width="56.3742" height="65.4935" fill="#A2DCF2"/>
<rect x="69.8929" y="117.629" width="51.4721" height="16.5806" fill="#27AEE3"/>
<ellipse cx="107.476" cy="118.458" rx="7.35316" ry="7.46129" fill="white"/>
<ellipse cx="98.08" cy="122.189" rx="4.4936" ry="4.55968" fill="white"/>
<ellipse cx="113.603" cy="134.624" rx="4.4936" ry="4.55968" fill="white"/>
<rect x="126.303" y="103.536" width="56.3742" height="65.4935" fill="#A2DCF2"/>
<rect x="128.754" y="117.629" width="51.4721" height="16.5806" fill="#27AEE3"/>
<ellipse cx="166.337" cy="118.458" rx="7.35316" ry="7.46129" fill="white"/>
<ellipse cx="156.941" cy="122.189" rx="4.4936" ry="4.55968" fill="white"/>
<ellipse cx="172.465" cy="134.624" rx="4.4936" ry="4.55968" fill="white"/>
<rect x="184.335" y="103.536" width="56.3742" height="65.4935" fill="#A2DCF2"/>
<rect x="186.786" y="117.629" width="51.4721" height="16.5806" fill="#27AEE3"/>
<ellipse cx="224.369" cy="118.458" rx="7.35316" ry="7.46129" fill="white"/>
<ellipse cx="214.974" cy="122.189" rx="4.4936" ry="4.55968" fill="white"/>
<ellipse cx="230.497" cy="134.624" rx="4.4936" ry="4.55968" fill="white"/>
<rect x="0.290283" y="94.4163" width="248.71" height="4.97419" fill="#1F3764"/>
<rect x="0.290283" y="169.029" width="248.71" height="4.97419" fill="#1F3764"/>
<rect x="0.290283" y="243.642" width="248.71" height="4.97419" fill="#1F3764"/>
<rect x="158.635" y="35.555" width="11.6065" height="58.8613" fill="#27AEE3"/>
<rect x="172.729" y="35.555" width="11.6065" height="58.8613" fill="#1D8ECE"/>
<rect x="186.823" y="35.555" width="11.6065" height="58.8613" fill="#27AEE3"/>
<rect x="200.916" y="35.555" width="11.6065" height="58.8613" fill="#1D8ECE"/>
<rect x="215.01" y="35.555" width="11.6065" height="58.8613" fill="#A2DCF2"/>
<rect x="229.103" y="35.555" width="11.6065" height="58.8613" fill="#A2DCF2"/>
<rect x="103.09" y="188.926" width="44.7677" height="54.7161" fill="#27AEE3"/>
<rect x="108.894" y="198.874" width="33.9903" height="3.31613" fill="#1F3764"/>
<rect x="149.516" y="188.926" width="44.7677" height="54.7161" fill="#27AEE3"/>
<rect x="155.319" y="198.874" width="33.9903" height="3.31613" fill="#1F3764"/>
<rect x="195.942" y="188.926" width="44.7677" height="54.7161" fill="#27AEE3"/>
<rect x="201.745" y="198.874" width="33.9903" height="3.31613" fill="#1F3764"/>
<path d="M8.58063 225.403V207.926C8.58063 206.797 9.2679 205.781 10.3166 205.362C11.1854 205.014 11.8968 203.965 11.8968 203.029V203.02H21.0161H30.1355V203.029C30.1355 203.965 30.8468 205.014 31.7156 205.362C32.7643 205.781 33.4516 206.796 33.4516 207.926V225.403V221.258V238.736C33.4516 239.865 32.7643 240.881 31.7156 241.3C30.8468 241.647 30.1355 242.698 30.1355 243.633V243.642H21.0161H11.8968V243.633C11.8968 242.697 11.1854 241.647 10.3166 241.3C9.2679 240.881 8.58063 239.866 8.58063 238.736V221.258" fill="#A2DCF2"/>
<path d="M33.4516 229.549L8.58063 237.839V219.6L33.4516 211.31V229.549Z" fill="#1D8ECE"/>
<path d="M33.4516 226.232L8.58063 234.523V222.916L33.4516 214.626V226.232Z" fill="#27AEE3"/>
<path d="M35.9387 225.403V207.926C35.9387 206.797 36.6259 205.781 37.6747 205.362C38.5435 205.014 39.2548 203.965 39.2548 203.029V203.02H48.3741H57.4935V203.029C57.4935 203.965 58.2048 205.014 59.0736 205.362C60.1224 205.781 60.8096 206.796 60.8096 207.926V225.403V221.258V238.736C60.8096 239.865 60.1224 240.881 59.0736 241.3C58.2048 241.647 57.4935 242.698 57.4935 243.633V243.642H48.3741H39.2548V243.633C39.2548 242.697 38.5435 241.647 37.6747 241.3C36.6259 240.881 35.9387 239.866 35.9387 238.736V221.258" fill="#A2DCF2"/>
<path d="M60.8096 229.549L35.9387 237.839V219.6L60.8096 211.31V229.549Z" fill="#1D8ECE"/>
<path d="M60.8096 226.232L35.9387 234.523V222.916L60.8096 214.626V226.232Z" fill="#27AEE3"/>
<path d="M8.58063 225.403V207.926C8.58063 206.797 9.2679 205.781 10.3166 205.362C11.1854 205.014 11.8968 203.965 11.8968 203.029V203.02H21.0161H30.1355V203.029C30.1355 203.965 30.8468 205.014 31.7156 205.362C32.7643 205.781 33.4516 206.796 33.4516 207.926V225.403V221.258V238.736C33.4516 239.865 32.7643 240.881 31.7156 241.3C30.8468 241.647 30.1355 242.698 30.1355 243.633V243.642H21.0161H11.8968V243.633C11.8968 242.697 11.1854 241.647 10.3166 241.3C9.2679 240.881 8.58063 239.866 8.58063 238.736V221.258" fill="#A2DCF2"/>
<path d="M33.4516 229.549L8.58063 237.839V219.6L33.4516 211.31V229.549Z" fill="#1D8ECE"/>
<path d="M33.4516 226.232L8.58063 234.523V222.916L33.4516 214.626V226.232Z" fill="#27AEE3"/>
<path d="M63.2968 225.403V207.926C63.2968 206.797 63.984 205.781 65.0327 205.362C65.9016 205.014 66.6129 203.965 66.6129 203.029V203.02H75.7322H84.8516V203.029C84.8516 203.965 85.5629 205.014 86.4317 205.362C87.4804 205.781 88.1677 206.796 88.1677 207.926V225.403V221.258V238.736C88.1677 239.865 87.4804 240.881 86.4317 241.3C85.5629 241.647 84.8516 242.698 84.8516 243.633V243.642H75.7322H66.6129V243.633C66.6129 242.697 65.9016 241.647 65.0327 241.3C63.984 240.881 63.2968 239.866 63.2968 238.736V221.258" fill="#A2DCF2"/>
<path d="M88.1677 229.549L63.2968 237.839V219.6L88.1677 211.31V229.549Z" fill="#1D8ECE"/>
<path d="M88.1677 226.232L63.2968 234.523V222.916L88.1677 214.626V226.232Z" fill="#27AEE3"/>
</g>
<rect x="10" y="10" width="229" height="229" stroke="#A2DCF2" stroke-width="20"/>
<rect x="63.6031" y="67.663" width="121.793" height="121.793" fill="#A2DCF2"/>
</svg>
