<svg width="20" height="20" viewBox="0 0 20 20" fill="none" xmlns="http://www.w3.org/2000/svg">
<path d="M19.7494 9.44695C20.112 9.04822 20.077 8.43709 19.6713 8.0823L10.733 0.261287C10.3273 -0.0935025 9.67685 -0.0860703 9.27969 0.278042L0.311057 8.49928C-0.0861093 8.86339 -0.105602 9.47375 0.267898 9.86198L0.492754 10.0962C0.865798 10.4844 1.46878 10.5307 1.8387 10.1992L2.50896 9.59899V18.3867C2.50896 18.9259 2.94583 19.3623 3.4846 19.3623H6.9806C7.51937 19.3623 7.95624 18.9259 7.95624 18.3867V12.2388H12.4154V18.3867C12.4077 18.9255 12.7932 19.3619 13.3319 19.3619H17.0368C17.5756 19.3619 18.0124 18.9255 18.0124 18.3863V9.72273C18.0124 9.72273 18.1976 9.88493 18.426 10.0857C18.654 10.286 19.1328 10.1254 19.4954 9.72625L19.7494 9.44695Z" fill="#53668A"/>
</svg>
