<svg width="177" height="220" viewBox="0 0 177 220" fill="none" xmlns="http://www.w3.org/2000/svg">
<ellipse cx="89" cy="207" rx="88" ry="13" fill="#D7F0FA" fill-opacity="0.3"/>
<path d="M127.535 17.0115L0 56.7856L49.1517 214.39L176.687 174.616L127.535 17.0115Z" fill="#D7F0FA"/>
<path d="M113.247 60.6356L38.5928 83.918L62.1985 159.61L136.853 136.327L113.247 60.6356Z" fill="#A2DCF2"/>
<path d="M111.247 59.6356L36.5928 82.918L60.1985 158.61L134.853 135.327L111.247 59.6356Z" fill="white"/>
<path d="M78.1439 32.4237L54.2959 39.8611L59.974 58.0678L83.822 50.6304L78.1439 32.4237Z" fill="#A2DCF2"/>
<path d="M65.3439 6.77488e-06L41.4958 7.43744L56.6941 56.1703L80.5421 48.7329L65.3439 6.77488e-06Z" fill="#1D8ECE"/>
<path d="M141.106 153.328L136.622 154.726C134.432 155.409 133.211 157.738 133.894 159.928C134.577 162.119 136.906 163.34 139.096 162.657L143.58 161.259C145.77 160.576 146.992 158.247 146.309 156.057C145.626 153.867 143.297 152.645 141.106 153.328Z" fill="white"/>
<path d="M119.472 160.075L65.981 176.757C63.7909 177.44 62.5693 179.769 63.2523 181.959C63.9353 184.149 66.2643 185.371 68.4544 184.688L121.945 168.006C124.135 167.323 125.357 164.994 124.674 162.804C123.991 160.614 121.662 159.392 119.472 160.075Z" fill="white"/>
<path d="M55.6129 11.3531C53.4227 12.0361 52.2011 14.3651 52.8841 16.5552L53.1544 17.4218C53.8375 19.612 56.1664 20.8336 58.3565 20.1506C60.5466 19.4675 61.7683 17.1386 61.0852 14.9485L60.815 14.0818C60.1319 11.8917 57.803 10.6701 55.6129 11.3531Z" fill="#A2DCF2"/>
<path d="M88.1894 119.685L88.2122 119.691L88.2123 119.691L88.2065 119.674L88.2186 119.683L88.2264 119.672L88.2265 119.672L88.2283 119.667L88.2291 119.669L93.63 112.544L93.6305 112.544L92.4071 109.008C92.0024 109.558 91.6295 110.131 91.3005 110.729C89.182 114.583 85.9935 115.151 85.9935 115.151C84.1661 115.838 80.8856 114.858 79.461 114.365C79.0987 114.24 78.7318 114.127 78.3614 114.029L79.5352 117.421L79.5356 117.421L88.1894 119.685Z" fill="#C2DBE3"/>
<path d="M88.2123 119.692L88.2127 119.692L88.2125 119.692L88.2123 119.692L87.0106 123.574L88.2123 119.692Z" fill="#C2DBE3"/>
<path d="M70.1596 91.6848L74.5328 90.1716C74.9314 90.0337 75.3068 89.8362 75.644 89.5832C76.3484 89.0549 77.4457 88.1509 78.274 87.4587C79.0125 86.8412 79.9452 86.5056 80.9078 86.51L86.07 86.5332C89.5607 86.5993 90.8826 89.3974 90.8826 89.3974L93.7256 97.6138C93.7256 97.6138 93.1829 94.7305 93.808 91.9918C93.9598 91.3267 93.9288 90.6331 93.7057 89.9885L91.253 82.9C91.253 82.9 89.6078 79.5768 85.9104 79.9362C85.9104 79.9362 86.2766 76.4946 82.4316 77.0408L69.1587 81.6334C64.3066 83.3123 61.7343 88.6065 63.4132 93.4586L65.2153 98.6667C65.6057 99.7952 66.3635 100.763 67.3746 101.398C68.1702 101.898 69.1242 102.787 69.7582 104.331L67.3695 97.4271C66.8997 93.308 70.1596 91.6848 70.1596 91.6848Z" fill="#64798A"/>
<path d="M85.9934 115.151C85.9934 115.151 89.182 114.583 91.3005 110.729C91.6295 110.131 92.0024 109.558 92.407 109.008C92.447 108.954 92.4854 108.899 92.5259 108.845C93.5735 107.456 95.3158 104.007 93.7256 97.6142L90.8826 89.3977C90.8826 89.3977 89.5607 86.5997 86.0701 86.5336L80.9078 86.5104C79.9453 86.506 79.0125 86.8416 78.274 87.459C77.4458 88.1513 76.3485 89.0553 75.6441 89.5835C75.3068 89.8365 74.9315 90.034 74.5329 90.172L70.1597 91.6851C70.1597 91.6851 66.8997 93.3084 67.3696 97.4275L69.7582 104.331L70.311 105.928C70.311 105.928 72.7831 112.592 78.2474 113.997C78.2857 114.007 78.3232 114.019 78.3614 114.029C78.7317 114.128 79.0985 114.241 79.461 114.366C80.8856 114.858 84.166 115.838 85.9934 115.151Z" fill="#F4FAFC"/>
<path d="M91.753 122.137L91.1377 124.316L94.7297 131.043L95.7791 124.917L91.753 122.137Z" fill="#D5D6DB"/>
<path d="M90.1317 132.669L88.7923 125.127L86.9458 123.783L85.4928 128.476L90.1317 132.669Z" fill="#D5D6DB"/>
<path d="M87.0106 123.574L86.9599 123.738L88.2167 119.704L88.2127 119.692L88.2123 119.692L87.0106 123.574Z" fill="#D5D6DB"/>
<path d="M94.73 131.043L91.138 124.317L91.7532 122.138L91.7533 122.137L88.2126 119.692L88.2128 119.693L88.2169 119.705L86.96 123.739L86.9461 123.783L86.946 123.784L88.7925 125.128L90.1319 132.669L90.1319 132.67L93.8723 136.05L94.7303 131.044L94.73 131.043Z" fill="#3258A1"/>
<path d="M93.8952 136.07L94.0392 135.774L93.8839 136.06L93.8952 136.07Z" fill="#3258A1"/>
<path d="M93.8708 136.065L93.5718 135.936L93.8681 136.08L93.8708 136.065Z" fill="#3258A1"/>
<path d="M93.8716 136.081L93.8852 136.088L93.8919 136.074L93.8786 136.069L93.8784 136.069L93.8784 136.069L93.8716 136.081Z" fill="#3258A1"/>
<path d="M88.2282 119.667L88.2263 119.673L88.229 119.669L88.2282 119.667Z" fill="#3258A1"/>
<path d="M88.2065 119.674L88.2125 119.692L88.2192 119.683L88.2065 119.674Z" fill="#3258A1"/>
<path d="M88.229 119.669L88.2264 119.673L88.2263 119.673L88.2186 119.683L88.2122 119.691L88.2121 119.692L88.2122 119.691L88.2122 119.692L88.2124 119.692L91.753 122.137L95.7799 124.917L97.8924 112.591L93.6304 112.544L93.6299 112.544L88.229 119.669Z" fill="#E1E6E9"/>
<path d="M86.9458 123.783L86.9459 123.782L87.0105 123.574L88.2123 119.692L88.2123 119.691L88.2122 119.692L88.1894 119.685L79.5357 117.421L79.5352 117.421L76.2139 120.092L85.4926 128.477L86.9458 123.783Z" fill="#E1E6E9"/>
<path d="M121.049 123.27L117.108 116.008C116.045 114.05 114.007 112.817 111.778 112.786L97.892 112.591L103.444 118.03L99.3667 119.512L101.676 121.686L94.038 135.775L93.8946 136.07L93.9073 136.081L96.8719 135.055L119.516 127.22C121.137 126.659 121.867 124.778 121.049 123.27Z" fill="#3A556A"/>
<path d="M93.8922 136.075L93.8855 136.088L93.8856 136.088L93.9069 136.081L93.8922 136.075Z" fill="#3A556A"/>
<path d="M94.7292 131.043L93.8711 136.049L93.8713 136.049L93.8829 136.06L94.0375 135.775L101.675 121.686L99.3662 119.512L103.444 118.031L97.8916 112.591L95.779 124.918L94.7292 131.043Z" fill="#2F4859"/>
<path d="M93.8719 136.082L93.8792 136.069L93.8792 136.069L93.8695 136.064L93.8668 136.08L93.8719 136.082Z" fill="#2F4859"/>
<path d="M93.8719 136.082L93.867 136.079L93.5719 135.936L78.8599 129.58L79.3319 126.444L75.2105 127.8L76.2139 120.092L65.4175 128.827C63.6849 130.229 62.8443 132.457 63.2191 134.654L64.6088 142.799C64.8974 144.49 66.6343 145.518 68.2555 144.957L90.9214 137.114L92.6711 136.509L92.6928 136.501L93.8858 136.089L93.886 136.089L93.8859 136.088L93.8719 136.082Z" fill="#3A556A"/>
<path d="M93.8948 136.07L93.8836 136.059L93.872 136.049L93.8719 136.049L90.1315 132.669L85.4924 128.477L76.2137 120.092L75.2103 127.8L79.3315 126.444L78.8595 129.58L93.5716 135.936L93.8693 136.064L93.8787 136.069L93.8789 136.069L93.8924 136.074L93.9076 136.081L93.8948 136.07Z" fill="#2F4859"/>
</svg>
