<svg id="Layer_2_copy" data-name="Layer 2 copy" xmlns="http://www.w3.org/2000/svg" viewBox="0 0 841.89 595.28"><title>Milkyway AI_12092019_02</title><path d="M654.9,363.17c-1.45,107.18-178.71,114.26-315.15,132.49-145.13,19.38-187-73.79-154.69-159.28C217.12,251.52,356.78,114.57,467,114.57S656.13,271.92,654.9,363.17Z" style="fill:#25ade3"/><path d="M483.93,312.52,384.85,448H586.21S481.53,309.49,483.93,312.52Z" style="fill:none;stroke:#fff;stroke-miterlimit:10;stroke-width:2px"/><rect x="363.13" y="444.73" width="241.58" height="22.15" style="fill:#231f20;stroke:#231f20;stroke-miterlimit:10;stroke-width:2px"/><line x1="350.07" y1="444.67" x2="608.09" y2="444.67" style="fill:none;stroke:#25ade3;stroke-miterlimit:10;stroke-width:2px"/><path d="M454.07,272s20.37-1,30.18-9.83,18.26-18.94,28.07-10.15,15.9,2.37,15.9,2.37L483.74,312.3Z" style="fill:#231f20"/><path d="M406.34,444.77s23-18.09,35.14-42.06c4.66-9.22,17.14-22.57,23.93-34.78S480,334.44,486.82,348s19.3,33.5,19.3,33.5-1.36-4.07,8.14,10.85,16.28,16.29,23.07,28.5,27.57,23.39,27.57,23.39Z" style="fill:#231f20"/><path d="M484.13,331.83c0,1.27.05,2.26-.5,2.3-.76.05-.51-1-.51-2.3s.23-2.3.51-2.3S484.13,330.56,484.13,331.83Z" style="fill:#231f20"/><circle cx="483.61" cy="319.83" r="0.41" style="fill:#231f20"/><ellipse cx="483.61" cy="327.22" rx="0.41" ry="0.77" style="fill:#231f20"/><path d="M483.93,312.6,384.85,177.11H586.21S481.53,315.63,483.93,312.6Z" style="fill:none;stroke:#fff;stroke-miterlimit:10;stroke-width:2px"/><rect x="363.13" y="158.18" width="241.58" height="22.15" style="fill:#231f20;stroke:#231f20;stroke-miterlimit:10;stroke-width:2px"/><polygon points="495.51 281.71 563.37 191.98 547.25 191.98 495.51 281.71" style="fill:#fff"/><polygon points="520.28 223.84 530.42 206.23 524.45 205.48 514.01 222.72 520.28 223.84" style="fill:#fff"/><polygon points="410.18 432.13 419.67 432.13 454.08 376.64 410.18 432.13" style="fill:#fff"/><path d="M491.94,158.62h13.15s4,13.39,30.77,21.19H504.61S491.94,175.66,491.94,158.62Z" style="fill:#fff;stroke:#231f20;stroke-miterlimit:10"/><path d="M434.1,446.16h13.15s3,13.68,19.63,21.19H440.52S435.65,462.94,434.1,446.16Z" style="fill:#fff;stroke:#231f20;stroke-miterlimit:10"/><path d="M453.81,446.16h6.43s4.87,13.68,23.47,21.19h-8.19S461.12,463.38,453.81,446.16Z" style="fill:#fff;stroke:#231f20;stroke-miterlimit:10"/><path d="M322.42,318.13l2.58-37.7s-13.14-1.54-5.36-12c3.35-4.52,7.26,7,10.32,4.73s15.63-15,12.53-34.22a92.74,92.74,0,0,1,15.65,14.4c7.41,8.69,7.94-3.09,11.25,1s-3.84,7.66-3.84,7.66,9.8,29.06-26.71,28.17" style="fill:none;stroke:#231f20;stroke-linecap:round;stroke-linejoin:round;stroke-width:2px"/><path d="M350.6,289.29l.64,26.94s8.76,6.22,25.23,20.31" style="fill:none;stroke:#231f20;stroke-linecap:round;stroke-linejoin:round;stroke-width:2px"/><ellipse cx="349.82" cy="260.81" rx="6.58" ry="2.5" transform="matrix(0.96, -0.29, 0.29, 0.96, -60.62, 112.7)" style="fill:#fff;stroke:#231f20;stroke-linecap:round;stroke-linejoin:round;stroke-width:2px"/><path d="M351.61,305.73s-5.36-12.11-11.13-15.94c0,0,7.82-.22,10.6-.34Z" style="fill:#231f20"/><path d="M349.09,258.41l1.46,4.79s7.29-3.24,4.66-4.76S349.09,258.41,349.09,258.41Z" style="fill:#231f20"/><path d="M354.7,276.66s4.49-.54,6,.5" style="fill:none;stroke:#231f20;stroke-linecap:round;stroke-linejoin:round;stroke-width:2px"/><path d="M342.62,237.87s-5.31-14.72-39.68-10.71-30.76-24.51-59.06-29.35-37.57,5-71.31,5.29-76.21-9-89.29,55.65,44.48,90.92,101.66,60.18,67.16-15.12,81.76-13.13,59.26,4.05,58.64-24.93c0,0-7.15-.49-7.4-6-.22-4.85-1.11-12.72,11.88-1.39A39.9,39.9,0,0,0,342.62,237.87Z" style="fill:#231f20"/><circle cx="159.36" cy="227.39" r="8.62" style="fill:#fff"/><circle cx="172.98" cy="214.45" r="2.75" style="fill:#fff"/><path d="M98.69,211.34s12.45-22.11,57.51-14.59" style="fill:none;stroke:#231f20;stroke-linecap:round;stroke-linejoin:round;stroke-width:2px"/><path d="M266.68,204.28s6.27,8.36,10.18,10" style="fill:none;stroke:#231f20;stroke-linecap:round;stroke-linejoin:round;stroke-width:2px"/><path d="M189.29,324s26.85-16.72,45.05-17.25" style="fill:none;stroke:#231f20;stroke-linecap:round;stroke-linejoin:round;stroke-width:2px"/><path d="M309.2,313.79s-83.63,39.49-56.74,110.26c23.75,62.49,82.38,46.14,82.38,46.14s-15.08-48.42,8.49-74c0,0-28.31-8.49-38.8-27S309.2,313.79,309.2,313.79Z" style="fill:#fff"/><path d="M376,336.62s-65.53,26-67.05-21.64l-43.53,75.15,85.74,5.24S387,394.64,408.09,371C408.09,371,398.59,349.45,376,336.62Z" style="fill:#fff"/><path d="M304.53,369.22c10.49,18.52,38.8,27,38.8,27-23.57,25.54-8.49,74-8.49,74s-59.52,16.35-83.26-46.14c-26.9-70.77,57.62-110.26,57.62-110.26s-5.28,47.73,66.94,22.76c0,0,22.6,11.06,31.6,34.45" style="fill:none;stroke:#231f20;stroke-linecap:round;stroke-linejoin:round;stroke-width:2px"/><path d="M416,359.21c-19.22,39.35-73.08,36.91-73.08,36.91" style="fill:none;stroke:#231f20;stroke-linecap:round;stroke-linejoin:round;stroke-width:2px"/><path d="M335.17,469.75S391,461.43,427,387.27" style="fill:#25ade3;stroke:#231f20;stroke-linecap:round;stroke-linejoin:round;stroke-width:2px"/><path d="M364.62,394.29s-2.39,5.11-7,6.77c-6.73,2.44-8.62,13.75,7,5.13s15.8-16,15.8-16Z" style="fill:#231f20"/><path d="M345,395.69s-22.3,32.06-2.33,71.83c0,0-5.15,1.33-7.81,2.06C334.86,469.58,318.93,418.33,345,395.69Z" style="fill:#231f20"/><path d="M416.3,358.71s7.82-16.45,23.45-14,16,11.1,6.58,9c0,0-5.74-1.53-7.59-2.08,0,0,12.95,3.51,10.18,6.29s-12-2-12-2,14.25,5.56,8.33,6.67-10.92-3.15-10.92-3.15,8.7,6.11,3.89,5.74-10.36-4.63-10.36-4.63" style="fill:none;stroke:#231f20;stroke-linecap:round;stroke-linejoin:round;stroke-width:2px"/><path d="M414.5,362.21s2,7.23,16.49,11.12" style="fill:none;stroke:#231f20;stroke-linecap:round;stroke-linejoin:round;stroke-width:6px"/><path d="M428.76,380.52s1.59-10,3.17-13.76" style="fill:none;stroke:#231f20;stroke-linecap:round;stroke-linejoin:round;stroke-width:2px"/><ellipse cx="420.46" cy="368.09" rx="6.65" ry="6.13" transform="translate(-127.34 478.53) rotate(-52.6)" style="fill:#fff;stroke:#231f20;stroke-linecap:round;stroke-linejoin:round;stroke-width:2px"/><ellipse cx="420.43" cy="367.84" rx="1.68" ry="1.55" transform="translate(-127.15 478.4) rotate(-52.6)" style="fill:#231f20"/><polyline points="422.49 365.46 420.43 367.84 422.29 369.5" style="fill:none;stroke:#231f20;stroke-linecap:round;stroke-linejoin:round"/><path d="M299.92,319S290,379.85,388,345.26" style="fill:none;stroke:#231f20;stroke-linecap:round;stroke-linejoin:round;stroke-width:2px"/><circle cx="216.22" cy="361.61" r="9.52" style="fill:#231f20"/><circle cx="580.76" cy="245.33" r="9.52" style="fill:#fff"/><circle cx="554.37" cy="248.11" r="3.69" style="fill:#fff"/><circle cx="246.6" cy="346.22" r="4.44" style="fill:#231f20"/><path d="M678,261.1s48.91,79.56,28.26,94.36-24,3.69-29.63-26c-7-37-15.53-49.54-16.15-62.41C660,256.27,669.89,250.81,678,261.1Z" style="fill:#25ade3"/><path d="M660.25,236.64s-17.49,11.08-18.66-4.66-5.25-25.07,3.5-22.74S667.24,231.39,660.25,236.64Z" style="fill:#25ade3"/></svg>