<svg width="54" height="50" viewBox="0 0 54 50" fill="none" xmlns="http://www.w3.org/2000/svg">
<path d="M10.6666 25H26.6666V39H10.6666V25Z" fill="#A2DCF2"/>
<path d="M26.6666 25H42.6666V39H26.6666V25Z" fill="#A2DCF2"/>
<path d="M26.6666 25H27.7332V39H26.6666V25Z" fill="#27AEE3"/>
<path d="M0 39H53.3333V44H0V39Z" fill="#3A556A"/>
<path d="M0 17H53.3333V22H0V17Z" fill="#3A556A"/>
<path d="M3.2001 0H7.46677V50H3.2001V0Z" fill="#53668A"/>
<path d="M45.8667 0H50.1334V50H45.8667V0Z" fill="#53668A"/>
<path d="M10.6666 3H26.6666V17H10.6666V3Z" fill="#A2DCF2"/>
<path d="M26.6666 3H42.6666V17H26.6666V3Z" fill="#A2DCF2"/>
<path d="M26.6668 3.18066H27.942V17.4263H26.6668V3.18066Z" fill="#27AEE3"/>
<path d="M42.435 3.18066V4.24382L35.1177 10.8551C34.9586 10.9977 34.7552 11.0691 34.5505 11.0691C34.3471 11.0691 34.1424 10.9977 33.9845 10.8551L26.6668 4.24382V3.18066H27.8424L34.5505 9.24069L41.2587 3.18066H42.435Z" fill="#27AEE3"/>
<path d="M26.667 3.18066V4.24268L19.3485 10.8551C19.1906 10.9977 18.9859 11.0691 18.7825 11.0691C18.5778 11.0691 18.3743 10.9977 18.2152 10.8551L10.8979 4.24382V3.18066H12.0743L18.7825 9.24069L25.4906 3.18066H26.667Z" fill="#27AEE3"/>
<path d="M37.3333 33L34.6667 31.1351L32 33V25H37.3333V33Z" fill="#3258A1"/>
<path d="M21.3333 33L18.6667 31.1351L16 33V25H21.3333V33Z" fill="#3258A1"/>
</svg>
