<svg width="55" height="48" viewBox="0 0 55 48" fill="none" xmlns="http://www.w3.org/2000/svg">
<path d="M50.3232 21H4.07713C3.59268 21 3.20021 21.3661 3.20021 21.8175V47.1825C3.20021 47.634 3.59268 48 4.07713 48H50.3233C50.8077 48 51.2002 47.6339 51.2002 47.1825V21.8176C51.2001 21.366 50.8075 21 50.3232 21Z" fill="#D7F0FA"/>
<path d="M50.3232 21H4.07713C3.59268 21 3.20021 21.3582 3.20021 21.8V25H51.2002V21.8C51.2001 21.3581 50.8075 21 50.3232 21Z" fill="#1D8ECE"/>
<path d="M31.2146 21H23.1861C22.752 21 22.4003 21.3661 22.4003 21.8175V47.1825C22.4003 47.634 22.752 48 23.1861 48H31.2146C31.6485 48 32.0003 47.6339 32.0003 47.1825V21.8176C32.0003 21.366 31.6485 21 31.2146 21Z" fill="#A2DCF2"/>
<path d="M31.2146 21H23.1861C22.752 21 22.4003 21.3598 22.4003 21.8034V25H32.0003V21.8034C32.0003 21.3597 31.6485 21 31.2146 21Z" fill="#2F4859"/>
<path d="M49.1869 5.82612C48.2946 3.85589 46.8868 1.93162 45.4209 0.678497C44.883 0.218767 44.1586 -0.0142932 43.3341 0.000678365C40.602 0.0545568 36.1499 2.95951 30.1015 8.63476C29.9504 8.77637 29.8668 8.96051 29.8668 9.15142V13.2291C29.8668 13.6549 30.274 14 30.7768 14H44.7743C47.8932 14 49.1805 12.7145 49.711 11.6361C50.4188 10.1986 50.2325 8.13508 49.1869 5.82612Z" fill="#A2DCF2"/>
<path d="M49.6916 6.46853C49.6655 6.38126 49.6243 6.2983 49.5694 6.22292C48.1594 4.2823 45.1125 5.00841 42.8049 5.95922C36.1007 8.72153 33.3322 12.5265 33.2176 12.6871C33.031 12.9486 33.0167 13.2818 33.1801 13.5557C33.3435 13.8296 33.6584 14 34.0007 14H44.6292C46.6658 14 48.1761 13.431 49.1182 12.3088C50.2374 10.9756 50.4356 8.95599 49.6916 6.46853Z" fill="#1D8ECE"/>
<path d="M24.2992 8.63471C18.2508 2.95949 13.7986 0.0545645 11.0664 0.000686512C10.2398 -0.0143803 9.51742 0.218773 8.97959 0.6785C7.51377 1.93152 6.10581 3.85587 5.21363 5.82609C4.16801 8.13502 3.98172 10.1984 4.68907 11.6361C5.2197 12.7146 6.50688 14 9.62594 14H23.6237C24.1264 14 24.5337 13.6548 24.5337 13.2291V9.15136C24.5338 8.96045 24.4504 8.77632 24.2992 8.63471Z" fill="#A2DCF2"/>
<path d="M21.1831 12.6872C21.0685 12.5266 18.2999 8.7214 11.5957 5.95913C9.28791 5.0083 6.24118 4.28249 4.83113 6.22273C4.77638 6.29822 4.73514 6.38108 4.70903 6.46845C3.96479 8.95598 4.16324 10.9756 5.28243 12.3087C6.22443 13.431 7.73475 14 9.77145 14H20.3999C20.7423 14 21.0572 13.8296 21.2205 13.5557C21.3838 13.2819 21.3695 12.9487 21.1831 12.6872Z" fill="#1D8ECE"/>
<path d="M31.0752 9H23.3254C22.8143 9 22.4003 9.27047 22.4003 9.604V13.396C22.4003 13.7296 22.8143 14 23.3254 14H31.0752C31.5863 14 32.0003 13.7295 32.0003 13.396V9.604C32.0003 9.27039 31.5863 9 31.0752 9Z" fill="#2F4859"/>
<path d="M53.5411 13H0.858925C0.384412 13 0 13.3396 0 13.7583V21.2417C0 21.6605 0.384412 22 0.858925 22H53.5411C54.0156 22 54.4 21.6604 54.4 21.2417V13.7583C54.4 13.3395 54.0156 13 53.5411 13Z" fill="#D7F0FA"/>
<path d="M33.0669 13H21.3335V22H33.0669V13Z" fill="#A2DCF2"/>
</svg>
