<svg width="24" height="24" viewBox="0 0 24 24" fill="none" xmlns="http://www.w3.org/2000/svg">
<path fill-rule="evenodd" clip-rule="evenodd" d="M23.9242 10.6675C23.8862 10.3301 23.4929 10.0766 23.1528 10.0766C22.0531 10.0766 21.0772 9.4309 20.668 8.43229C20.2499 7.40949 20.5195 6.21666 21.339 5.46487C21.597 5.22903 21.6284 4.83425 21.412 4.56002C20.8492 3.84529 20.2094 3.19967 19.511 2.64014C19.2374 2.42064 18.8361 2.45118 18.599 2.71381C17.8837 3.50596 16.5989 3.80037 15.6061 3.38612C14.5729 2.95151 13.9214 1.9046 13.9852 0.780795C14.0062 0.427804 13.7482 0.120891 13.3963 0.0799032C12.4999 -0.0237705 11.5957 -0.0269852 10.6966 0.0727595C10.3487 0.111157 10.0908 0.410838 10.1024 0.759364C10.1416 1.87209 9.48219 2.9007 8.4593 3.31969C7.47837 3.72036 6.20258 3.42845 5.48874 2.64335C5.25282 2.38475 4.85804 2.35296 4.58318 2.56718C3.86399 3.13145 3.20989 3.7776 2.64187 4.48644C2.42032 4.76201 2.45292 5.16144 2.71348 5.39852C3.54868 6.15486 3.81836 7.35805 3.38446 8.39264C2.97021 9.37902 1.94598 10.0147 0.77342 10.0147C0.392925 10.0025 0.121909 10.2579 0.0802967 10.6038C-0.0252523 11.5054 -0.0265025 12.424 0.0751174 13.3328C0.112801 13.6716 0.51812 13.9229 0.862002 13.9229C1.90695 13.8962 2.91021 14.5432 3.33106 15.5673C3.75058 16.5901 3.4809 17.7822 2.66009 18.5346C2.40336 18.7705 2.37076 19.1646 2.58713 19.4389C3.1447 20.149 3.78451 20.7953 4.48549 21.3595C4.76044 21.581 5.16049 21.5497 5.39882 21.2871C6.11677 20.493 7.40148 20.1991 8.39036 20.6142C9.42611 21.0475 10.0776 22.0943 10.0139 23.2187C9.99306 23.5719 10.2523 23.8793 10.6028 23.9197C11.0613 23.9732 11.5226 23.9999 11.9852 23.9999C12.4243 23.9999 12.8634 23.9758 13.3025 23.9269C13.6505 23.8885 13.9083 23.5888 13.8966 23.2397C13.8563 22.1276 14.5168 21.099 15.5384 20.6807C16.5259 20.2774 17.7964 20.5726 18.5103 21.3569C18.7476 21.6149 19.1396 21.6461 19.4159 21.4326C20.1338 20.8697 20.7866 20.224 21.3573 19.5132C21.5787 19.2383 21.5475 18.8382 21.2856 18.6013C20.4504 17.8449 20.1793 16.6415 20.6132 15.6077C21.0211 14.6344 22.0073 13.9809 23.0681 13.9809L23.2165 13.9848C23.5606 14.0127 23.8771 13.7477 23.9188 13.3965C24.0246 12.4941 24.0258 11.5763 23.9242 10.6675ZM12.0187 16.028C9.81143 16.028 8.01603 14.2326 8.01603 12.0253C8.01603 9.81818 9.81143 8.02269 12.0187 8.02269C14.2258 8.02269 16.0212 9.81818 16.0212 12.0253C16.0212 14.2326 14.2258 16.028 12.0187 16.028Z" fill="#53668A"/>
</svg>
