<svg width="20" height="23" viewBox="0 0 20 23" fill="none" xmlns="http://www.w3.org/2000/svg">
<rect width="20" height="22.7965" fill="#53668A"/>
<path d="M11.1193 4.96732H3.19666V6.49551H11.1193V4.96732Z" fill="#F4F8FF"/>
<path d="M11.1193 16.1761H3.19666V17.7047H11.1193V16.1761Z" fill="#F4F8FF"/>
<path d="M11.1193 10.5721H3.19666V12.1003H11.1193V10.5721Z" fill="#F4F8FF"/>
<path d="M17.6526 4.47926L16.5228 3.39801L14.4041 5.42498L13.4164 4.47926L12.287 5.55975L14.4041 7.58634L17.6526 4.47926Z" fill="#F4F8FF"/>
<path d="M17.6526 10.0833L16.5228 9.00281L14.4041 11.029L13.4164 10.0833L12.287 11.1645L14.4041 13.1911L17.6526 10.0833Z" fill="#F4F8FF"/>
<path d="M17.6526 15.6881L16.5228 14.6076L14.4041 16.6338L13.4164 15.6881L12.287 16.7686L14.4041 18.7959L17.6526 15.6881Z" fill="#F4F8FF"/>
</svg>
