<svg width="20" height="12" viewBox="0 0 20 12" fill="none" xmlns="http://www.w3.org/2000/svg">
<path d="M9.57353 0C5.91528 0 2.59779 2.00146 0.149816 5.25237C-0.0499387 5.51871 -0.0499387 5.8908 0.149816 6.15714C2.59779 9.41197 5.91528 11.4134 9.57353 11.4134C13.2318 11.4134 16.5493 9.41197 18.9972 6.16106C19.197 5.89472 19.197 5.52263 18.9972 5.25629C16.5493 2.00146 13.2318 0 9.57353 0ZM9.83596 9.72531C7.40757 9.87806 5.40219 7.8766 5.55494 5.44429C5.68028 3.43891 7.30573 1.81346 9.31111 1.68812C11.7395 1.53537 13.7449 3.53683 13.5921 5.96914C13.4629 7.9706 11.8374 9.59605 9.83596 9.72531ZM9.71454 7.86876C8.40634 7.95102 7.32531 6.87391 7.41148 5.56571C7.47807 4.48469 8.35542 3.61125 9.43645 3.54075C10.7446 3.4585 11.8257 4.5356 11.7395 5.8438C11.669 6.92874 10.7916 7.80218 9.71454 7.86876Z" fill="#53668A"/>
</svg>
